<?xml version="1.0" standalone="no"?>
<!DOCTYPE svg PUBLIC "-//W3C//DTD SVG 20010904//EN"
"http://www.w3.org/TR/2001/REC-SVG-20010904/DTD/svg10.dtd">
<svg version="1.0" xmlns="http://www.w3.org/2000/svg"
width="811.000000pt" height="295.000000pt" viewBox="0 0 811.000000 295.000000"
preserveAspectRatio="xMidYMid meet">

<!-- Beyaz arka plan ekleyerek metni görünür yapma -->
<rect width="100%" height="100%" fill="#FFFFFF"/>

<g transform="translate(0.000000,295.000000) scale(0.100000,-0.100000)"
fill="#000000" stroke="none">
<path d="M0 1475 l0 -1475 4055 0 4055 0 0 1475 0 1475 -4055 0 -4055 0 0
-1475z m2530 751 c133 -38 262 -131 336 -243 21 -31 51 -96 68 -143 30 -84 30
-86 31 -305 0 -238 -6 -283 -55 -390 -73 -163 -215 -281 -386 -325 -64 -17
-111 -20 -280 -20 -234 0 -278 7 -393 62 -102 49 -208 149 -259 245 -58 110
-72 190 -72 412 0 222 11 293 60 393 86 175 252 298 444 329 88 13 443 3 506
-15z m-1532 -62 c2 -12 -15 -77 -37 -145 -83 -259 -101 -353 -101 -516 0 -140
22 -250 90 -457 40 -120 50 -163 43 -175 -42 -64 -231 104 -327 289 -77 148
-102 277 -85 430 24 209 164 456 324 572 46 34 88 35 93 2z m470 -5 c2 -15
-15 -82 -37 -150 -54 -171 -67 -220 -85 -324 -34 -192 -15 -353 70 -616 56
-174 62 -204 42 -211 -37 -13 -86 17 -173 105 -101 103 -158 194 -201 322 -35
102 -44 263 -21 371 41 192 185 421 317 506 54 35 84 34 88 -3z m2534 -276
c120 -43 199 -146 218 -286 30 -216 -60 -386 -232 -438 -56 -17 -87 -20 -166
-17 -114 5 -167 25 -237 89 -60 55 -92 120 -107 213 -36 231 80 420 279 456
66 12 188 4 245 -17z m538 -358 l0 -365 -85 0 -85 0 0 365 0 365 85 0 85 0 0
-365z m350 70 l0 -295 175 0 175 0 0 -70 0 -70 -260 0 -260 0 0 365 0 365 85
0 85 0 0 -295z m660 -70 l0 -365 -85 0 -85 0 0 365 0 365 85 0 85 0 0 -365z
m386 288 c33 -43 113 -145 177 -226 l117 -148 0 225 0 226 85 0 85 0 0 -365 0
-365 -77 1 -78 0 -175 223 -175 223 -3 -223 -2 -224 -80 0 -80 0 0 365 0 365
73 0 72 0 61 -77z m816 -80 l3 -157 140 157 139 157 93 0 c51 0 93 -3 93 -7 0
-5 -61 -76 -135 -160 -74 -83 -135 -154 -135 -157 0 -3 65 -93 145 -200 80
-107 145 -197 145 -200 0 -3 -46 -6 -102 -6 l-103 0 -109 147 -109 147 -33
-39 c-34 -40 -34 -40 -34 -147 l0 -108 -90 0 -90 0 0 365 0 365 90 0 89 0 3
-157z m771 -425 c42 -21 46 -108 7 -143 -14 -13 -37 -19 -71 -19 -44 -1 -54 3
-75 27 -76 88 30 191 139 135z"/>
<path d="M2004 1906 c-64 -30 -120 -85 -148 -145 -19 -42 -21 -63 -21 -236 0
-178 1 -193 24 -242 29 -65 91 -124 157 -149 42 -16 76 -19 234 -19 167 0 189
2 231 21 60 28 116 85 145 148 22 48 24 62 24 233 0 215 -12 261 -82 330 -79
75 -88 78 -313 81 -194 2 -202 2 -251 -22z"/>
<path d="M3765 1745 c-73 -40 -106 -99 -113 -201 -6 -88 15 -158 61 -202 102
-98 242 -75 310 53 18 32 22 57 22 130 0 80 -3 95 -28 137 -40 69 -78 92 -157
96 -46 2 -74 -2 -95 -13z"/>
</g>
</svg>
